<svg width="28" height="28" viewBox="0 0 28 28" fill="none" xmlns="http://www.w3.org/2000/svg">
<path d="M14 9.33333V15.1667H19.8333V12.8333H16.3333V9.33333H14Z" fill="white"/>
<path d="M24.8406 9.91317C24.3144 8.66489 23.5504 7.53085 22.5913 6.57417C21.1395 5.12233 19.294 4.12779 17.283 3.7135C15.8872 3.4294 14.4484 3.4294 13.0526 3.7135C11.0398 4.12514 9.1927 5.1205 7.74198 6.57534C6.78518 7.53304 6.02153 8.66584 5.49265 9.912C4.94561 11.2054 4.66469 12.5957 4.66665 14L4.66781 14.0292H2.33331L5.83331 18.6667L9.33331 14.0292H7.00115L6.99998 14C6.99662 12.3729 7.48235 10.7824 8.39415 9.43484C8.98229 8.5653 9.73109 7.8161 10.6003 7.2275C11.4846 6.63181 12.4765 6.21413 13.5205 5.99784C15.6421 5.56162 17.8501 5.98574 19.6591 7.17695C21.4682 8.36816 22.7301 10.229 23.1676 12.3503C23.3877 13.4375 23.3877 14.5578 23.1676 15.645C22.9542 16.6899 22.5363 17.6823 21.938 18.5652C21.6463 18.998 21.3115 19.4052 20.9416 19.7738C20.1963 20.5182 19.3151 21.1127 18.3458 21.525C17.8521 21.7337 17.339 21.8931 16.814 22.001C15.7272 22.2209 14.6073 22.2209 13.5205 22.001C12.4767 21.787 11.4852 21.3696 10.6026 20.7725C10.1686 20.4792 9.76348 20.1452 9.39281 19.775L7.74315 21.4247C8.71746 22.4003 9.87468 23.1742 11.1485 23.7019C12.4224 24.2296 13.7878 24.5008 15.1666 24.5C16.5702 24.4994 17.9596 24.219 19.2535 23.6752C21.129 22.8816 22.7337 21.5603 23.8723 19.8718C25.0442 18.138 25.6692 16.0927 25.6666 14C25.6696 12.596 25.3886 11.2059 24.8406 9.91317Z" fill="white"/>
</svg>
