<svg width="22" height="24" viewBox="0 0 22 24" fill="none" xmlns="http://www.w3.org/2000/svg">
<path d="M2.83333 23.6667H19.1667C19.7855 23.6667 20.379 23.4208 20.8166 22.9832C21.2542 22.5457 21.5 21.9522 21.5 21.3333V10.8333C21.5009 10.6798 21.4715 10.5276 21.4134 10.3854C21.3553 10.2433 21.2698 10.114 21.1617 10.005L11.8283 0.671656C11.6097 0.454363 11.314 0.332397 11.0058 0.332397C10.6976 0.332397 10.4019 0.454363 10.1833 0.671656L0.85 10.005C0.739764 10.113 0.652066 10.2419 0.591986 10.3841C0.531907 10.5263 0.500641 10.679 0.5 10.8333V21.3333C0.5 21.9522 0.745833 22.5457 1.18342 22.9832C1.621 23.4208 2.21449 23.6667 2.83333 23.6667ZM8.66667 21.3333V15.5H13.3333V21.3333H8.66667ZM2.83333 11.3117L11 3.14499L19.1667 11.3117V21.3333H15.6667V15.5C15.6667 14.8811 15.4208 14.2877 14.9832 13.8501C14.5457 13.4125 13.9522 13.1667 13.3333 13.1667H8.66667C8.04783 13.1667 7.45434 13.4125 7.01675 13.8501C6.57917 14.2877 6.33333 14.8811 6.33333 15.5V21.3333H2.83333V11.3117Z" fill="#FA5555"/>
</svg>
