<svg width="28" height="28" viewBox="0 0 28 28" fill="none" xmlns="http://www.w3.org/2000/svg">
<path d="M23.3333 3.5H4.66665C3.37981 3.5 2.33331 4.5465 2.33331 5.83333V22.1667C2.33331 23.4535 3.37981 24.5 4.66665 24.5H23.3333C24.6201 24.5 25.6666 23.4535 25.6666 22.1667V5.83333C25.6666 4.5465 24.6201 3.5 23.3333 3.5ZM23.3345 10.5C23.3333 10.5 23.3333 10.5 23.3345 10.5H22.792L19.6805 5.83333H23.3333L23.3345 10.5ZM11.1253 10.5L8.01381 5.83333H11.0425L14.154 10.5H11.1253ZM16.9586 10.5L13.8471 5.83333H16.8758L19.9873 10.5H16.9586ZM4.66665 5.83333H5.20915L8.32065 10.5H4.66665V5.83333ZM4.66665 22.1667V12.8333H23.3333L23.3356 22.1667H4.66665Z" fill="#FA5555"/>
<path d="M11.6667 21L18.0834 17.5L11.6667 14V21Z" fill="#FA5555"/>
</svg>
