<svg width="23" height="24" viewBox="0 0 23 24" fill="none" xmlns="http://www.w3.org/2000/svg">
<path d="M22.9399 8.61173C22.8684 8.40116 22.7368 8.21615 22.5613 8.07951C22.3858 7.94288 22.1742 7.86062 21.9525 7.84288L15.4676 7.32766L12.6614 1.11659C12.572 0.916549 12.4266 0.746639 12.2428 0.627372C12.059 0.508105 11.8446 0.444578 11.6255 0.444458C11.4063 0.444338 11.1919 0.50763 11.0079 0.626695C10.824 0.74576 10.6784 0.91551 10.5888 1.11546L7.7826 7.32766L1.29767 7.84288C1.07979 7.86014 0.871493 7.93979 0.697701 8.07232C0.52391 8.20484 0.391983 8.38462 0.317704 8.59015C0.243425 8.79568 0.229939 9.01825 0.27886 9.23124C0.327781 9.44423 0.437037 9.63862 0.593557 9.79116L5.38587 14.4623L3.69099 21.8004C3.63952 22.0226 3.65602 22.255 3.73833 22.4676C3.82064 22.6803 3.96497 22.8633 4.15259 22.9929C4.34021 23.1225 4.56245 23.1927 4.79048 23.1944C5.01851 23.1962 5.2418 23.1293 5.43137 23.0026L11.6251 18.874L17.8188 23.0026C18.0126 23.1312 18.2411 23.1975 18.4736 23.1924C18.7061 23.1873 18.9315 23.1111 19.1194 22.9741C19.3074 22.8371 19.4488 22.6458 19.5248 22.4261C19.6008 22.2063 19.6076 21.9685 19.5444 21.7447L17.4639 14.4657L22.6236 9.823C22.9615 9.51819 23.0855 9.04278 22.9399 8.61173Z" fill="#FA5555"/>
</svg>
