<svg width="23" height="24" viewBox="0 0 23 24" fill="none" xmlns="http://www.w3.org/2000/svg">
<path d="M5.13701 14.4608L3.44212 21.7986C3.38964 22.0208 3.4054 22.2536 3.48733 22.4667C3.56927 22.6798 3.71358 22.8633 3.90141 22.9931C4.08925 23.1229 4.31188 23.1931 4.54022 23.1944C4.76856 23.1958 4.99201 23.1283 5.18137 23.0007L11.3751 18.8724L17.5688 23.0007C17.7626 23.1293 17.9911 23.1955 18.2236 23.1904C18.4561 23.1853 18.6815 23.1092 18.8694 22.9722C19.0574 22.8352 19.1988 22.6439 19.2748 22.4242C19.3508 22.2044 19.3576 21.9666 19.2944 21.7429L17.2139 14.4643L22.3736 9.82187C22.5389 9.6731 22.6569 9.47917 22.7131 9.26405C22.7693 9.04893 22.7612 8.82207 22.6898 8.61151C22.6183 8.40096 22.4868 8.21595 22.3113 8.07936C22.1359 7.94277 21.9242 7.8606 21.7025 7.843L15.2176 7.32668L12.4114 1.11599C12.3219 0.916001 12.1764 0.746181 11.9925 0.627023C11.8087 0.507864 11.5942 0.444458 11.3751 0.444458C11.156 0.444458 10.9415 0.507864 10.7576 0.627023C10.5738 0.746181 10.4283 0.916001 10.3388 1.11599L7.5326 7.32668L1.04767 7.84187C0.82979 7.85912 0.621493 7.93877 0.447701 8.07129C0.27391 8.20381 0.141983 8.38358 0.0677037 8.58909C-0.00657522 8.79461 -0.020061 9.01717 0.0288599 9.23015C0.0777808 9.44313 0.187037 9.6375 0.343557 9.79003L5.13701 14.4608ZM8.38232 9.54096C8.58535 9.52497 8.78035 9.45466 8.94686 9.33741C9.11338 9.22015 9.24527 9.06027 9.32872 8.87452L11.3751 4.347L13.4215 8.87452C13.5049 9.06027 13.6368 9.22015 13.8033 9.33741C13.9698 9.45466 14.1648 9.52497 14.3679 9.54096L18.8861 9.89921L15.1653 13.2474C14.8422 13.5385 14.7137 13.9866 14.832 14.4051L16.2573 19.3921L12.0075 16.5591C11.821 16.434 11.6015 16.3671 11.3768 16.3671C11.1522 16.3671 10.9326 16.434 10.7461 16.5591L6.30523 19.5195L7.49961 14.3494C7.5434 14.1592 7.53753 13.961 7.48254 13.7738C7.42756 13.5866 7.32532 13.4166 7.18566 13.2803L3.72991 9.91172L8.38232 9.54096Z" fill="#FA5555"/>
</svg>
