<svg width="28" height="28" viewBox="0 0 28 28" fill="none" xmlns="http://www.w3.org/2000/svg">
<path d="M14 2.33333C10.918 2.37263 7.97332 3.61441 5.79386 5.79388C3.6144 7.97334 2.37262 10.918 2.33331 14C2.34772 15.7954 2.77632 17.5632 3.58574 19.1659C4.39517 20.7686 5.56357 22.1628 6.99998 23.24V23.3333H7.11665C9.09203 24.8471 11.5113 25.6674 14 25.6674C16.4887 25.6674 18.9079 24.8471 20.8833 23.3333H21V23.24C22.4364 22.1628 23.6048 20.7686 24.4142 19.1659C25.2236 17.5632 25.6522 15.7954 25.6666 14C25.6273 10.918 24.3856 7.97334 22.2061 5.79388C20.0266 3.61441 17.082 2.37263 14 2.33333ZM9.41498 22.085C9.5853 21.305 10.0172 20.6067 10.6389 20.1059C11.2607 19.6051 12.035 19.3319 12.8333 19.3317H15.1666C15.965 19.3319 16.7393 19.6051 17.361 20.1059C17.9828 20.6067 18.4147 21.305 18.585 22.085C17.1953 22.9026 15.6123 23.3337 14 23.3337C12.3876 23.3337 10.8046 22.9026 9.41498 22.085ZM20.545 20.58C20.1012 19.5194 19.354 18.6137 18.3971 17.9764C17.4402 17.3392 16.3163 16.9989 15.1666 16.9983H12.8333C11.6837 16.9989 10.5598 17.3392 9.6029 17.9764C8.64601 18.6137 7.89875 19.5194 7.45498 20.58C6.58075 19.7201 5.88453 18.6965 5.4061 17.5674C4.92766 16.4384 4.67639 15.2262 4.66665 14C4.69691 11.534 5.68995 9.17761 7.43378 7.43379C9.1776 5.68997 11.534 4.69692 14 4.66666C16.4659 4.69692 18.8224 5.68997 20.5662 7.43379C22.31 9.17761 23.3031 11.534 23.3333 14C23.3236 15.2262 23.0723 16.4384 22.5939 17.5674C22.1154 18.6965 21.4192 19.7201 20.545 20.58Z" fill="white"/>
<path d="M14 7C13.3832 6.98563 12.77 7.09652 12.1973 7.32596C11.6246 7.55539 11.1044 7.89861 10.6682 8.33485C10.2319 8.77108 9.88872 9.29127 9.65929 9.86395C9.42985 10.4366 9.31896 11.0499 9.33333 11.6667C9.31896 12.2834 9.42985 12.8967 9.65929 13.4694C9.88872 14.0421 10.2319 14.5623 10.6682 14.9985C11.1044 15.4347 11.6246 15.7779 12.1973 16.0074C12.77 16.2368 13.3832 16.3477 14 16.3333C14.6168 16.3477 15.23 16.2368 15.8027 16.0074C16.3754 15.7779 16.8956 15.4347 17.3318 14.9985C17.7681 14.5623 18.1113 14.0421 18.3407 13.4694C18.5701 12.8967 18.681 12.2834 18.6667 11.6667C18.681 11.0499 18.5701 10.4366 18.3407 9.86395C18.1113 9.29127 17.7681 8.77108 17.3318 8.33485C16.8956 7.89861 16.3754 7.55539 15.8027 7.32596C15.23 7.09652 14.6168 6.98563 14 7ZM14 14C13.6896 14.015 13.3795 13.9649 13.0896 13.853C12.7997 13.741 12.5365 13.5697 12.3167 13.3499C12.097 13.1302 11.9256 12.8669 11.8137 12.577C11.7017 12.2872 11.6517 11.9771 11.6667 11.6667C11.6517 11.3563 11.7017 11.0462 11.8137 10.7563C11.9256 10.4664 12.097 10.2031 12.3167 9.9834C12.5365 9.76366 12.7997 9.59232 13.0896 9.48036C13.3795 9.36841 13.6896 9.31833 14 9.33333C14.3104 9.31833 14.6205 9.36841 14.9104 9.48036C15.2003 9.59232 15.4635 9.76366 15.6833 9.9834C15.903 10.2031 16.0743 10.4664 16.1863 10.7563C16.2983 11.0462 16.3483 11.3563 16.3333 11.6667C16.3483 11.9771 16.2983 12.2872 16.1863 12.577C16.0743 12.8669 15.903 13.1302 15.6833 13.3499C15.4635 13.5697 15.2003 13.741 14.9104 13.853C14.6205 13.9649 14.3104 14.015 14 14Z" fill="white"/>
</svg>
